<svg xmlns="http://www.w3.org/2000/svg" width="1194.097" height="1628.816" viewBox="0 0 1194.097 1628.816">
  <g id="clients_achievements" data-name="clients &amp; achievements" transform="translate(374.424 -5582.834)">
    <ellipse id="Ellipse_102" data-name="Ellipse 102" cx="364.283" cy="144.612" rx="364.283" ry="144.612" transform="translate(-243.729 6939.013) rotate(-19.498)" fill="#502eff"/>
    <g id="Group_1050" data-name="Group 1050" transform="translate(-374.424 5582.834)">
      <path id="Path_1252" data-name="Path 1252" d="M2673.394,448.954c-5.145,5.821-15.124,6.437-20.945,1.293a14.839,14.839,0,1,1,20.945-1.293Z" transform="translate(-2046.449 5.309)" fill="#02536a"/>
      <path id="Path_1253" data-name="Path 1253" d="M2626.579,439.861a9.322,9.322,0,1,1,13.625-1.232A9.663,9.663,0,0,1,2626.579,439.861Z" transform="translate(-2056.579 5.066)" fill="#02536a"/>
      <path id="Path_1254" data-name="Path 1254" d="M2503.192,522.672a9.434,9.434,0,1,1,12.434-.077A9.844,9.844,0,0,1,2503.192,522.672Z" transform="translate(-2108.921 40.066)" fill="#02536a"/>
      <g id="Group_1036" data-name="Group 1036" transform="translate(349.346 355.034)">
        <path id="Path_1255" data-name="Path 1255" d="M2678.667,836.877c-4.266,5.19-47.391-25.73-85.04-54.362-2.089-1.583-4.157-3.211-6.246-4.771-27.643-21.221-50.864-39.935-50.864-39.935s22.584-4.091,33.03-11.964a15.86,15.86,0,0,0,3.673-3.585c5.958-8.4-2.948-46.774-9.391-77.892-.088-.4-.176-.814-.242-1.209-.044-.265-.109-.551-.154-.791-1.276-6.049-2.353-11.766-3.254-16.867l132.253,24.542c1.012,6.047,2.023,12.139,3.1,18.164.066.747.219,1.43.33,2.177.417,2.529.857,5.036,1.274,7.565.55,3.167,1.078,6.311,1.607,9.456.373,2.112.724,4.222,1.076,6.311a8.686,8.686,0,0,0,4.355,6.356c9.1,5.476,30.9.638,53.965-.2C2787.125,698.818,2686.341,827.486,2678.667,836.877Z" transform="translate(-2442.843 -264.438)" fill="#ffc0ad"/>
        <path id="Path_1256" data-name="Path 1256" d="M2558.214,640.576c3.271,7.764,7.356,15.543,13.474,21.426,6.259,6.012,14.442,8.941,23.02,9.207,18.011.551,33.614-9.792,47.879-19.533q11.895-8.112,23.776-16.218c7.834-5.335,15.549-11.63,23.821-16.24,6.1-3.406,14.7-2.8,21.234-1.041a45.373,45.373,0,0,1,17.977,9.887c.635.542,1.238,1.106,1.832,1.683.942.911,1.841,1.844,2.686,2.814-1.889-32.132-7.4-64.4-13.748-95.914-6-29.827-16.929-57.875-33.887-83.157l-.024.006a.522.522,0,0,1-.2.007.4.4,0,0,1-.124,0,1.889,1.889,0,0,1-.334-.1.279.279,0,0,1-.069-.023c-.98-.415-1.976-.788-2.951-1.116-16.543-5.431-33.7,1.38-49.688,6.316q-14.041,4.344-28.086,8.664c-7.471,2.305-15.211,4.247-22.312,7.581-5.984,2.805-12.452,6.944-14.429,13.649-2.326,7.921,3.421,15.037,5.667,22.246,2.132,6.873.205,13.192-3.241,19.257-3.808,6.671-8.054,12.9-11.185,19.971C2546.76,578.313,2546.142,611.95,2558.214,640.576Z" transform="translate(-2437.332 -338.714)" fill="#ffc0ad"/>
        <path id="Path_1257" data-name="Path 1257" d="M2491.886,565.283l.012.048a1.18,1.18,0,0,0,.18.571c4.874,10.474,10.022,21.038,16.666,30.548,6.694,9.5,14.9,17.79,20.841,27.815,7.5,12.631,25.718,25.027,37.627,38.191a68.209,68.209,0,0,1-8.227-17.619,105.607,105.607,0,0,1-3.794-22.143c-.177-1.9-.244-3.77-.37-5.68-.006-.253-.023-.555-.03-.809-.208-4.289-.355-8.539-.452-12.8-.114-2.525-.2-5.157-.31-7.887.016-.157-.028-.35-.024-.555-.966-20.233-4.173-43.835-22.129-55.32-8.044-5.113-18.957-6.006-26.973-.414-8.725,6.057-9.809,16.35-12.958,25.633C2491.929,565.018,2491.9,565.126,2491.886,565.283Z" transform="translate(-2461.76 -302.626)" fill="#ffc0ad"/>
        <g id="Group_1035" data-name="Group 1035" transform="translate(0)">
          <path id="Path_1258" data-name="Path 1258" d="M2492.333,557.354l.208.451A1.179,1.179,0,0,1,2492.333,557.354Z" transform="translate(-2461.57 -293.323)" fill="#611a12"/>
          <path id="Path_1259" data-name="Path 1259" d="M2677.335,579.583c.1,1.589,2.6,1.72,2.512.117-.008-.2-.023-.382-.028-.568-.844-.97-1.743-1.9-2.686-2.814C2677.2,577.4,2677.277,578.5,2677.335,579.583Z" transform="translate(-2383.238 -285.285)" fill="#611a12"/>
          <path id="Path_1260" data-name="Path 1260" d="M2770.194,749.037c-5.7,12.953-14.36,24.916-27.4,31.294-.793.329-1.606.725-2.463,1.076-.308.111-.682.309-1.056.44a50.368,50.368,0,0,1-6.266,2.023c-1.562.419-3.146.77-4.729,1.057-.724.131-1.473.241-2.2.352-.351.066-.7.11-1.056.154-2.111.285-4.244.484-6.4.571-.615.044-1.253.067-1.869.088-.352,0-.725.023-1.1.023a150.842,150.842,0,0,1-22.387-1.541c-16.692-2.177-34.13-4.485-50.822-8.862-2.946-.769-5.87-1.6-8.773-2.529a126.179,126.179,0,0,1-32.7-15.328c-.242-.154-.461-.308-.682-.438a.475.475,0,0,1-.176-.111.08.08,0,0,0-.022-.044h-.021a2.762,2.762,0,0,1-.419-.285,94.828,94.828,0,0,1-8.18-6.333,79.029,79.029,0,0,1-17.9-21.684q-1.22-2.176-2.243-4.42c-4.663-10.27-6.422-21.4-7.169-32.547-.177-1.891-.242-3.76-.374-5.674,0-.263-.021-.571-.021-.813-.221-4.289-.352-8.532-.462-12.8-.111-2.529-.2-5.167-.309-7.894a4.737,4.737,0,0,0-.021-.55c-.7-13-2.375-26.038-8.533-37.648-3.914-7.367-9.873-14.294-17.944-17.242-8.664-3.188-18.627-1.451-24.476,6.047-4.641,5.893-6.289,13.612-8.115,20.672-.044.044-.021.089-.066.154-.593-1.232-1.1-2.4-1.627-3.605-.265.923-.463,1.78-.726,2.7a1.446,1.446,0,0,0,0,.616c-.219-.463-.417-.88-.615-1.343l-.022-.043c-3.849-8.445-7.829-17.2-10.907-25.84-10.49-29.446-17.857-61.069-19.088-92.362-.615-14.337.946-28.917,7.081-42.045,5.476-11.656,14.031-21.64,23.706-30.062,22.276-19.55,50.359-32.987,79.1-39.76,15.9-3.716,32.26-4.464,48.315-7.168a96.944,96.944,0,0,0,23.925-6.906c6.994-3.167,13.37-7.433,20.034-11.083,11.479-6.312,23.6-9.523,36.506-5.916a49.278,49.278,0,0,1,27.489,20.188c15.767,23.861,9.873,54.825-4.926,77.519a134.5,134.5,0,0,1-11.765,15.109c-.045.065-.045.065-.089.065,0,.044,0,.044-.043.066-.044.066-.089.066-.132.132a.891.891,0,0,1-.352.175l-.022.023h-.263a.08.08,0,0,0-.065.021l-.023-.021a.324.324,0,0,1-.132-.044.415.415,0,0,1-.176-.067.076.076,0,0,0-.044.023.04.04,0,0,0-.065,0c-.485-.219-.969-.417-1.453-.615h-.021c-.484-.2-.99-.353-1.474-.507q-1.384-.461-2.771-.792c-.367-.094-.736-.15-1.1-.232a43.97,43.97,0,0,0-7.3-.933,7.4,7.4,0,0,0-.99-.023,8.247,8.247,0,0,0-1.055-.021c-.77,0-1.539.021-2.309.044q-2.242.1-4.485.4c-.814.11-1.606.219-2.419.352-1.018.162-2.029.373-3.04.575-.975.2-1.953.4-2.927.632-.428.1-.858.207-1.286.312-.082.023-.164.037-.246.064-.831.2-1.685.42-2.536.653-.4.108-.794.224-1.191.333-.848.243-1.7.486-2.539.729-.77.219-1.54.461-2.288.7-1.517.44-3.013.923-4.508,1.407-2.243.7-4.485,1.43-6.685,2.112-9.346,2.88-18.737,5.784-28.083,8.664-3.519,1.078-7.08,2.068-10.621,3.188-.549.155-1.077.309-1.583.484-.638.2-1.275.419-1.913.638-.925.309-1.847.638-2.771.968-.9.352-1.825.7-2.727,1.078l-.022.021c-.9.375-1.8.77-2.683,1.188-.747.352-1.5.726-2.243,1.1-1.122.617-2.243,1.254-3.343,1.958h-.022v.021c-.351.221-.7.463-1.055.7-.221.154-.418.309-.616.44a29.711,29.711,0,0,0-2.375,2,11.757,11.757,0,0,0-.9.9,4.771,4.771,0,0,0-.461.505,14.425,14.425,0,0,0-1.166,1.452,15.254,15.254,0,0,0-2.243,4.573,13.136,13.136,0,0,0-.448,2.172l-.008.067a16.363,16.363,0,0,0,.611,6.338c.219.77.484,1.539.769,2.288v.021c1.182,3.179,2.813,6.285,4.012,9.389.147.377.284.753.415,1.131.095.276.216.552.3.827.155.484.287.99.418,1.474v.021c.111.484.2.991.265,1.475a18.855,18.855,0,0,1,.219,2.9c0,.528-.021,1.055-.066,1.562a5.107,5.107,0,0,1-.044.571q-.066.66-.2,1.32a21.988,21.988,0,0,1-.682,2.88c-.22.726-.483,1.43-.748,2.156v.021c-.22.549-.461,1.1-.7,1.627-.263.549-.528,1.078-.814,1.627v.021c-.285.528-.571,1.078-.878,1.606-.484.836-.969,1.649-1.453,2.485-1.451,2.463-2.946,4.883-4.4,7.344-.967,1.628-1.913,3.278-2.792,4.971-.9,1.672-1.76,3.409-2.552,5.167a111.4,111.4,0,0,0-5.937,17c-.021.023,0,.023,0,.023-.505,1.934-.967,3.891-1.385,5.849-.2.99-.4,1.979-.572,2.99-.065.33-.109.638-.153.968-.188,1.078-.354,2.16-.51,3.244-.24,1.677-.453,3.36-.621,5.049-.063.643-.118,1.287-.173,1.931-.154,1.874-.276,3.752-.341,5.632-.018.51-.024,1.018-.034,1.526-.044,1.992-.052,3.985.005,5.977.011.366.034.729.048,1.094.084,2.174.208,4.347.415,6.51a4.21,4.21,0,0,1,.043.528c.375,3.628.9,7.235,1.606,10.82.176.923.374,1.847.572,2.771.418,1.826.857,3.628,1.364,5.432a108.869,108.869,0,0,0,4.6,13.282c1.232,2.925,2.573,5.828,4.089,8.643a53.235,53.235,0,0,0,8.269,11.677c.375.352.749.725,1.122,1.1a30.13,30.13,0,0,0,5.894,4.442,20.06,20.06,0,0,0,2.331,1.276,33.533,33.533,0,0,0,3.275,1.354l.192.07a35.519,35.519,0,0,0,3.46,1.017c.507.133,1.034.242,1.539.352.528.088,1.034.177,1.562.263h.022c1.033.155,2.09.286,3.145.352.55.044,1.077.067,1.627.089,1.144.044,2.266.023,3.365-.021.287,0,.572-.023.858-.044.242,0,.462-.023.682-.044a12.3,12.3,0,0,0,1.3-.132,2.737,2.737,0,0,0,.594-.066,8.4,8.4,0,0,0,1.056-.133c.506-.065,1.011-.131,1.517-.242.022.023.022.023.044,0,.132-.021.265-.043.4-.066h.022c.373-.065.725-.131,1.1-.219,1.8-.374,3.584-.836,5.365-1.385l.792-.265A73.087,73.087,0,0,0,2656,697.271c.791-.419,1.562-.815,2.353-1.232.461-.263.946-.528,1.43-.813,1.693-.947,3.365-1.937,5.013-2.947q3.695-2.309,7.258-4.706l2.638-1.781c.417-.286.857-.594,1.3-.88q7.059-4.848,14.119-9.654l9.631-6.6c.4-.263.815-.549,1.211-.834,1.561-1.057,3.122-2.177,4.683-3.3,1.958-1.408,3.915-2.836,5.872-4.245,1.583-1.121,3.146-2.243,4.75-3.321,2.4-1.606,4.838-3.145,7.346-4.529,5.342-2.992,12.643-2.9,18.8-1.627q1.251.263,2.44.594c.836.219,1.649.461,2.463.747a45.193,45.193,0,0,1,11.436,5.915c1.406,1.012,2.771,2.067,4.046,3.189.175.154.329.308.482.461.154.132.308.286.464.4l.878.88c.023.351.066.725.088,1.1.067.7.11,1.43.132,2.156a1.372,1.372,0,0,0,2.177.967,1.028,1.028,0,0,0,.351-.88c0-.043-.022-.11-.022-.175a.847.847,0,0,1-.021-.221.436.436,0,0,0,.021-.154C2786.863,688.078,2781.3,723.769,2770.194,749.037Z" transform="translate(-2470.728 -371.923)" fill="#611a12"/>
          <path id="Path_1261" data-name="Path 1261" d="M2494.627,557.578c.054.117.113.232.167.35a4.574,4.574,0,0,0-.3.377l-1.357.844c-.219-.477-.441-.96-.662-1.439A1.237,1.237,0,0,0,2494.627,557.578Z" transform="translate(-2461.509 -293.228)" fill="#611a12"/>
        </g>
        <path id="Path_1262" data-name="Path 1262" d="M2679.163,451.349c-9.533,1.417-19.019,4.83-28.145,7.642-9.336,2.883-18.737,5.781-28.071,8.663-7.482,2.305-15.213,4.215-22.323,7.564-5.984,2.845-12.45,6.949-14.444,13.669-2.331,7.924,3.412,15.055,5.649,22.238,2.186,6.855.242,13.2-3.236,19.245-3.785,6.677-8.037,12.893-11.165,19.984-12.559,28.349-13.142,61.99-1.082,90.621,3.3,7.777,7.328,15.522,13.473,21.435a32.553,32.553,0,0,0,14.743,8.045,46.536,46.536,0,0,1-9.816.759c-8.593-.306-16.8-3.182-23.057-9.2-6.144-5.914-10.176-13.658-13.473-21.435-12.06-28.631-11.477-62.272,1.083-90.621,3.128-7.091,7.379-13.308,11.164-19.984,3.48-6.042,5.421-12.391,3.238-19.245-2.237-7.184-7.981-14.314-5.65-22.238,1.995-6.721,8.459-10.824,14.444-13.669,7.11-3.349,14.841-5.258,22.323-7.564,9.335-2.882,18.736-5.779,28.072-8.663,11.78-3.639,24.188-8.28,36.471-8.313.721,0,1.376,0,2.042.057A41.964,41.964,0,0,1,2679.163,451.349Z" transform="translate(-2437.333 -338.71)" fill="#fb9590"/>
        <path id="Path_1263" data-name="Path 1263" d="M2688.112,680.164a147.78,147.78,0,0,1-22.343-1.539c-31.446-4.112-65.445-8.62-92.318-26.719-.461-.307-.881-.549-1.32-.88a99.33,99.33,0,0,1-10.532-8.445.478.478,0,0,0,.174.111c.2.154.44.285.682.438a126.175,126.175,0,0,0,32.7,15.328c2.9.9,5.827,1.737,8.774,2.529,16.692,4.377,34.13,6.685,50.822,8.862a150.778,150.778,0,0,0,22.386,1.541c.375,0,.748-.023,1.1-.023.639-.021,1.254-.044,1.87-.088,2.155-.087,4.288-.286,6.4-.571C2687.057,673.875,2687.584,677.019,2688.112,680.164Z" transform="translate(-2432.211 -257.198)" fill="#fb9590"/>
      </g>
      <path id="Path_1264" data-name="Path 1264" d="M2876.443,996.98l-.3,80.52-.072,20.119-.128,30.869c-3.1,1.4-6.237,2.762-9.369,4.087a554.5,554.5,0,0,1-83.967,27.894q-21.015,5.169-42.645,8.714l-10.024-65.669-39.8,1.452-23.935,71.336q-8.629.278-17.329.271-4.677,0-9.326-.085a558.857,558.857,0,0,1-113.4-13.441q-6.942-1.538-13.826-3.289l19.593-155.857Z" transform="translate(-2103.748 248.056)" fill="#312544"/>
      <path id="Path_1265" data-name="Path 1265" d="M2788.519,1050.04v60.044a554.43,554.43,0,0,1-83.966,27.894l-3.346-29.688-.228-1.993-4.5-39.883Z" transform="translate(-2025.692 270.547)" fill="#81352d" opacity="0.51"/>
      <path id="Path_1266" data-name="Path 1266" d="M2796.719,1017.208s-103.729,33.575-121.271,49.423c-4.443,4.029-19.706,45.009-40.011,103.956a558.829,558.829,0,0,1-113.4-13.441l19.009-146.246S2721.169,1026.434,2796.719,1017.208Z" transform="translate(-2099.632 253.956)" fill="#81352d" opacity="0.51"/>
      <path id="Path_1267" data-name="Path 1267" d="M2353.746,1038.212c10.473-5.368,21.052-10.766,31.617-16.26q-22.219-19.174-45.031-37.654c-19.7,23.3-39.623,48.251-62.59,66.818-7.366,5.956-42.316,11.018-38.375,32.417,0,0-7.68,19.362-13.32,30.828s26.2-.215,29.751,11.87,24.255,2.288,30.907,14,6.927,10.559,18.217,8.841,20.368-11.539,17.343-29.293c0,0,23.02-4.918,23.011-24.793S2311.618,1059.812,2353.746,1038.212Z" transform="translate(-2225.379 242.68)" fill="#f7beaa"/>
      <path id="Path_1268" data-name="Path 1268" d="M2609.741,971.334l12.111,263.975c195.087,37.414,344.515-6.919,344.515-6.919,0-120.951-27.015-288.559-27.015-288.559s138.207-301.263,139.027-333.179-22.662-155.6-22.662-155.6l-71.192,8.659c-4.048,17.947-32.6,180.907-54.9,190.635s-14.092,35.583-22.212,49-46.143,79.2-46.143,79.2L2653.909,779.9s-67.072,7.175-91.645,21.52-49.408,88.893-49.408,88.893l-74.509,143.133-138.17,172.968,53.481,48.1s99.024-81.073,115.961-94.823,65.058-51.452,78.983-70.584S2609.741,971.334,2609.741,971.334Z" transform="translate(-2193.674 16.651)" fill="#502eff"/>
      <path id="Path_1270" data-name="Path 1270" d="M2306.679,981.551l-21.838,26.492,43.131,42.42,32.188-20.814Z" transform="translate(-2200.175 241.516)" fill="#fff0e9"/>
      <path id="Path_1271" data-name="Path 1271" d="M2765.7,300.836c6.062-.921,10.617,5.388,12.834,11.1s4.382,12.473,10.114,14.647c3.45-4.847,2.373-11.415,1.778-17.334-.695-6.916,1.046-17.462,9.9-17.928,4.762-.252,9.165,2.324,13.234,4.81l11.274,6.886a44.511,44.511,0,0,1,9.287,6.843c4.62,4.843,7.619,12.14,14.125,13.719,4.472,1.087,9.776-.9,13.461,1.86,5.314,3.975,2.006,13.708,7.022,18.053,2.13,1.845,5.168,2.119,7.986,2.2,8.606.256,9.4,2.395,10.439,9.538.754,5.183,2.479,10.71.866,16.047-3.125,10.332-16.5,16.061-26.134,11.2,1.448.222,3.891,24.62,3.42,27.677-1.326,8.6-7.282,12.852-15.42,14.965-14.617,3.8-22.138,19.447-13.721,61.8-12.757,3.033-25.616,5.688-38.262,9.044a261.91,261.91,0,0,0-.418-35.395c-1.992-22.345-1.39-45.216-5.784-67.408a188.739,188.739,0,0,0-26.868-66.3c-2.847-4.369-5.969-8.845-6.594-14.022S2760.544,301.619,2765.7,300.836Z" transform="translate(-1999.548 -51.06)" fill="#ffc0ad"/>
      <path id="Path_1272" data-name="Path 1272" d="M2822.491,423.872c.5,3.376,1.088,6.883,1.842,10.678-12.756,3.033-25.615,5.688-38.26,9.044a281.633,281.633,0,0,0,.033-28.741A370.235,370.235,0,0,0,2822.491,423.872Z" transform="translate(-1987.716 1.308)" fill="#ffaa9a"/>
      <path id="Path_1273" data-name="Path 1273" d="M2781.9,310.767a265.2,265.2,0,0,1,87.729,62.917c-5.213,2.684-11.58,3.2-16.84.547,1.448.222,3.892,24.62,3.42,27.677-1.077,6.988-5.244,11.075-11.122,13.508a16.228,16.228,0,0,1-2.6-.648c-5.791-2.006-9.9-7.052-13.693-11.865q-7.006-8.9-14.014-17.79a176.391,176.391,0,0,1-13.412-18.64c-4.015-6.741-7.107-13.982-10.187-21.2q-5.777-13.537-11.558-27.075A14.214,14.214,0,0,0,2781.9,310.767Z" transform="translate(-1990.448 -42.811)" fill="#fb9590"/>
      <path id="Union_5" data-name="Union 5" d="M286.778,448.254c-23.837-.447-44.965-17.545-56.343-38.5s-14.609-45.286-16.315-69.068-2.128-47.918-8.589-70.868c-7.931-28.158-24.493-52.956-37.279-79.27-11.183-23.019-19.592-49.046-16.037-74L120.493,145.1,0,28.151,15.169,0l153.61,89.431,15.433-78.6,23.153,15.957,11.568,97.838-38.958-15.655c-2.343,14.931,3.157,31.225,11.5,44.337,10.671,16.775,25.568,30.537,36.283,47.284,12.851,20.087,19.141,43.553,25.374,66.571s12.794,46.451,26.074,66.257,34.639,38.524,58.479,39.068c4.325,19.456,6.929,38.488,11.253,57.944-20.57,6.579-39.513,17.834-61.017,17.834Q287.35,448.264,286.778,448.254Z" transform="translate(460.235 768.404)" fill="#f2ba49" stroke="rgba(0,0,0,0)" stroke-width="1"/>
      <path id="Path_1276" data-name="Path 1276" d="M2852.366,464.759l-5.859-46.05-66.583,12.332,1.25,42.377Z" transform="translate(-1990.322 2.943)" fill="#fff"/>
      <g id="Group_1041" data-name="Group 1041" transform="translate(739.359 0)">
        <g id="Group_1038" data-name="Group 1038" transform="translate(257.579)">
          <g id="Group_1037" data-name="Group 1037">
            <path id="Path_1277" data-name="Path 1277" d="M3003.28,421.08c2.455-2.07,60.187-51.386,65.329-110.02,5.009-57.038-37.973-168.99-39.809-173.728l-1.875-4.857-64.352-9.9-6.515,59.66-30.52,18.742,9.419,15.337,38.036-23.36,5.432-49.733,35.411,5.446c8.182,22.123,40.932,114.253,36.844,160.816-4.486,51.177-58.463,97.377-59.008,97.839Z" transform="translate(-2925.538 -122.579)" fill="#d67f1e"/>
          </g>
        </g>
        <path id="Path_1278" data-name="Path 1278" d="M3101.347,397.756l10.941,8.351s-14.584,35.63-58.773,66.427S2951.292,491.9,2951.292,491.9l-1.2-13.612Z" transform="translate(-2657.549 -5.939)" fill="#ae5616"/>
        <path id="Path_1279" data-name="Path 1279" d="M3024.195,399s27.444-3.862,77.152-.916c0,0-35.049,93.845-151.25,80.529,0,0,14.464-37.455,47.334-64.529Z" transform="translate(-2657.549 -6.269)" fill="#d67f1e"/>
        <path id="Path_1280" data-name="Path 1280" d="M2996.7,474.436c-6.694-23.683-8.834-44.956-2.669-68.06L3007.119,399s27.445-3.86,77.153-.915C3084.272,398.086,3062.546,456.148,2996.7,474.436Z" transform="translate(-2640.475 -6.268)" fill="#cc751e"/>
        <path id="Path_1281" data-name="Path 1281" d="M2959.686,463.389a187.01,187.01,0,0,1,34.953-51.668q.463,25.482.929,50.966C2985.055,467.864,2970.524,467.843,2959.686,463.389Z" transform="translate(-2653.485 -0.02)" fill="#ee972d"/>
        <path id="Path_1282" data-name="Path 1282" d="M3002.163,462.729c1.484-9.632,2.983-19.336,6.3-28.5s8.6-17.864,16.414-23.692c13.447-10.033,31.64-9.991,48.41-9.524A210.523,210.523,0,0,1,3002.163,462.729Z" transform="translate(-2635.479 -4.625)" fill="#d67f1e"/>
        <path id="Path_1283" data-name="Path 1283" d="M3016.444,376.058l1.629,31.811s-4.921,20.431-26.763,15.085l-26.774-15.416Z" transform="translate(-2651.429 -15.136)" fill="#d67f1e"/>
        <path id="Path_1284" data-name="Path 1284" d="M2973.415,352.6s10.437,22.823,46.905,33.407c0,0-3.229,39.312-51.908,31.479,0,0,4.684-33.713-13.019-56.948Z" transform="translate(-2655.305 -25.081)" fill="#d67f1e"/>
        <path id="Path_1285" data-name="Path 1285" d="M2965.421,354.244l3.742-1.649S2979.6,375.42,3016.07,386c0,0-2.516,30.417-36.272,32.4C2980.833,395.832,2976.889,373.15,2965.421,354.244Z" transform="translate(-2651.053 -25.081)" fill="#cc751e"/>
        <path id="Path_1286" data-name="Path 1286" d="M2965.3,364.892a103.619,103.619,0,0,0,7.181,40.25A47.335,47.335,0,0,0,2965.3,364.892Z" transform="translate(-2651.116 -19.869)" fill="#ee972d"/>
        <path id="Path_1287" data-name="Path 1287" d="M2999.626,399.394a19.879,19.879,0,0,0,7.7-14.921c-13.266-5.688-25.134-12.4-35.566-22.376C2980.1,375.034,2988.628,388.621,2999.626,399.394Z" transform="translate(-2648.368 -21.054)" fill="#d67f1e"/>
        <path id="Path_1288" data-name="Path 1288" d="M2987.649,334.644s14.69,19.292-12.271,35.4c-31.519,18.835-37.968-2.143-37.968-2.143Z" transform="translate(-2662.927 -32.69)" fill="#cc751e"/>
        <g id="Group_1040" data-name="Group 1040" transform="translate(0 169.908)">
          <g id="Group_1039" data-name="Group 1039">
            <path id="Path_1289" data-name="Path 1289" d="M3013.989,410.316c-2.941,1.289-72.692,31.29-127.562,10-53.383-20.709-134.821-108.733-138.262-112.473l-3.526-3.829,19.556-62.1,56.4,20.518,30.3-19.1,9.6,15.225-37.763,23.8-47.015-17.1-10.76,34.173c16.231,17.116,84.409,87.2,127.987,104.111,47.894,18.587,113.188-9.422,113.843-9.707Z" transform="translate(-2744.638 -241.907)" fill="#ee972d"/>
          </g>
        </g>
        <path id="Path_1290" data-name="Path 1290" d="M2946.285,153.893s227.137,176.631,81.966,277.051c-157.311,108.818-221.407-196.751-221.407-196.751Z" transform="translate(-2718.27 -109.306)" fill="#f4ae35"/>
        <path id="Path_1291" data-name="Path 1291" d="M2919.813,371.937c12.766-49.837,17.158-102.122,11.457-153.342-2.191-19.682-5.706-40.458-12.9-59.47,40.837,34.545,200.344,181.437,72.891,269.6-37.578,25.994-69.824,28.307-97.161,16.822A451.824,451.824,0,0,0,2919.813,371.937Z" transform="translate(-2681.283 -107.088)" fill="#d67f1e"/>
        <path id="Path_1292" data-name="Path 1292" d="M2985.176,236.807c19.524,32.813,37.348,68.517,34.99,106.372a105.857,105.857,0,0,1-96.144,98.851c28.832-89.728,26.336-189.132-6.541-277.419C2934.908,180.056,2961.971,206.024,2985.176,236.807Z" transform="translate(-2671.375 -104.763)" fill="#cc751e"/>
        <path id="Path_1293" data-name="Path 1293" d="M2946.285,153.925s-10.948,110.971-139.44,80.3C2806.844,234.225,2838.393,150.433,2946.285,153.925Z" transform="translate(-2718.27 -109.337)" fill="#fad175"/>
        <path id="Path_1294" data-name="Path 1294" d="M2909.039,155.652c-1.572,1.741-3.094,3.523-4.5,5.392a249.352,249.352,0,0,0-26.823,45.487c-4.75,10.279-9.07,20.72-13.081,31.271-15.977,2.052-35.032,1.079-57.793-4.354C2806.844,233.448,2830.947,169.456,2909.039,155.652Z" transform="translate(-2718.27 -108.56)" fill="#ffe6af"/>
        <path id="Path_1295" data-name="Path 1295" d="M2820.4,222.107c31.992,4.918,57.763,0,76.59-14.6,17.4-13.5,25.518-32.506,29.186-45.124-63.543,2.945-94.493,39.485-106.785,59.571.333.054.666.105,1,.157Z" transform="translate(-2712.95 -105.709)" fill="#994914"/>
        <path id="Path_1296" data-name="Path 1296" d="M2866.977,209.364c-1.769-12.455-3.463-24.886-6.168-37a144.93,144.93,0,0,1,46.791-9.937C2901.527,183.5,2884.853,197.022,2866.977,209.364Z" transform="translate(-2695.396 -105.689)" fill="#ae5616"/>
        <path id="Path_1297" data-name="Path 1297" d="M2999.984,312.207a326.907,326.907,0,0,0-79.379-137.575,365.086,365.086,0,0,1,22.661,226.93c21.352-5.721,44.9-13.077,55.792-32.31C3008.688,352.245,3005.323,331.006,2999.984,312.207Z" transform="translate(-2670.05 -100.515)" fill="#d67f1e"/>
        <path id="Path_1298" data-name="Path 1298" d="M2814.615,230.1a97.8,97.8,0,0,0,74.59-.08,101.212,101.212,0,0,0,53.37-53.391C2967.8,259.049,2958.129,351.7,2914.259,426,2855.838,378.424,2819.362,306.319,2814.615,230.1Z" transform="translate(-2714.976 -99.668)" fill="#ee972d"/>
        <path id="Path_1299" data-name="Path 1299" d="M2844.624,233.564a359.636,359.636,0,0,0,26.428,111.81,569.914,569.914,0,0,0-11.933-113.065,119.12,119.12,0,0,0,56.908-24.622c12.491,58.161,6.973,118.126-14.64,173.547-48-33.289-75.071-90.521-77.04-148.9A114.914,114.914,0,0,0,2844.624,233.564Z" transform="translate(-2710.851 -86.504)" fill="#f4ae35"/>
        <path id="Path_1300" data-name="Path 1300" d="M2963.227,354.958c1.964-1.323,5.732-4.109,8.279-2.836,6.483,3.238-3.035,8.972-5.641,10.32a35.753,35.753,0,0,1-19.56,3.913Q2954.766,360.656,2963.227,354.958Z" transform="translate(-2659.156 -25.42)" fill="#ee972d"/>
        <path id="Path_1301" data-name="Path 1301" d="M3004.686,392.491A55.408,55.408,0,0,1,2972.6,405.4c3.356,2.634,6.76,5.3,10.675,6.993s8.461,2.351,12.456.854a12.666,12.666,0,0,0,7.168-6.937C3004.206,403.147,3006.11,395.6,3004.686,392.491Z" transform="translate(-2648.01 -8.17)" fill="#ee972d"/>
        <path id="Path_1302" data-name="Path 1302" d="M2951.212,479.522l-.929-10.575c46.633,6.694,96.012-9.237,129.877-42q-1.9,7.3-3.806,14.61a200.637,200.637,0,0,1-22.92,18.6C3009.246,490.956,2951.212,479.522,2951.212,479.522Z" transform="translate(-2657.47 6.436)" fill="#cc751e"/>
        <path id="Path_1303" data-name="Path 1303" d="M2843.862,353.8a118.5,118.5,0,0,0,63.8,10.659c-10.122,7.878-21.112,11.461-33.829,9.779s-24.727-6.677-36.564-11.622C2839.156,360.409,2841.976,356.012,2843.862,353.8Z" transform="translate(-2705.374 -24.57)" fill="#f4ae35"/>
        <path id="Path_1304" data-name="Path 1304" d="M2745.823,300.938a224.2,224.2,0,0,1,20.051-52.611c-1.856,16.908-4.075,34.5-5.929,51.4a189.51,189.51,0,0,0,48.768,46.179c-.151,3.346.69,6.9.538,10.249C2787.424,339.51,2764.78,320.792,2745.823,300.938Z" transform="translate(-2744.135 -69.278)" fill="#f4ae35"/>
        <path id="Path_1305" data-name="Path 1305" d="M2957.271,182.378l4.562-50.906c-2.391-2.043-5.795-4.262-8.184-6.3-1.716,19.467-2.753,34.214-4.469,53.681C2952.261,178.407,2954.189,182.82,2957.271,182.378Z" transform="translate(-2657.938 -121.482)" fill="#ee972d"/>
      </g>
      <path id="Path_1306" data-name="Path 1306" d="M2868.387,345.176c5.9,5.523,6.028,14.681,5.732,22.761-.3,8.238.469,13.118-6.017,18.139-5.279,4.088-12.309,8.918-19.354,7.682-8.009-1.407-13.026-11.6-9.253-18.807-3.226.857-6.531,1.723-9.859,1.448s-6.74-1.914-8.231-4.9c-1.112-2.226-1.16-5.1-3.07-6.7-2.068-1.727-5.122-1.019-7.816-1.032-20.138-.09-17.271-30.952-15.707-42.834.249-1.885,3.637-19.056,1.487-19.906q9.626,3.778,19.255,7.554" transform="translate(-1984.481 -46.94)" fill="#ffc0ad"/>
      <path id="Path_1307" data-name="Path 1307" d="M2789.271,458.243l59.132-7.193s.714,3.76,1.869,10.038Z" transform="translate(-1986.36 16.651)" fill="#fff0e9"/>
      <g id="Group_1042" data-name="Group 1042" transform="translate(34.615 114.082)">
        <path id="Path_1308" data-name="Path 1308" d="M2807.441,217.864l-27.03,17.8-9.23-17.8,30.986-15.163Z" transform="translate(-2028.643 -202.7)" fill="#3cba94"/>
        <path id="Path_1309" data-name="Path 1309" d="M2500.248,915.185l-27.031,17.8-9.229-17.8,30.986-15.163Z" transform="translate(-2158.854 92.875)" fill="#3cba94"/>
        <path id="Path_1310" data-name="Path 1310" d="M2349.4,791.62l-9.23-7.911-29.008,3.956,11.208,6.593Z" transform="translate(-2223.631 43.573)" fill="#3cba94"/>
        <path id="Path_1311" data-name="Path 1311" d="M2636.792,367.85l-21.756,15.823-5.933-31.645,13.845-2.637Z" transform="translate(-2097.344 -140.522)" fill="#3cba94"/>
        <path id="Path_1312" data-name="Path 1312" d="M2945.289,655.214l-5.933-21.756-13.185,10.878,3.954,15.493Z" transform="translate(-1962.947 -20.114)" fill="#3cba94"/>
        <path id="Path_1313" data-name="Path 1313" d="M2889.568,924.093l-5.933-21.756-13.186,10.878,3.956,15.493Z" transform="translate(-1986.566 93.857)" fill="#3cba94"/>
        <path id="Path_1314" data-name="Path 1314" d="M2269.172,819.95l-15.164,8.241V788.964h15.164Z" transform="translate(-2247.858 45.801)" fill="#3cba94"/>
        <path id="Path_1315" data-name="Path 1315" d="M2442.146,606.738l5.131,31.956-20.021,1.106-1.1-34.48Z" transform="translate(-2174.89 -32.04)" fill="#fb9f76"/>
        <path id="Path_1316" data-name="Path 1316" d="M2263.909,707.334l8.264,7.337-11.1,24.646-11.385-26.1Z" transform="translate(-2249.689 11.2)" fill="#fb9f76"/>
        <path id="Path_1317" data-name="Path 1317" d="M2957.18,469.649l-22.274-3.524,4.5,16.49,15.751,2.755Z" transform="translate(-1959.243 -91.041)" fill="#fb9f76"/>
        <path id="Path_1318" data-name="Path 1318" d="M2943.678,783.613l-27.031,17.8-9.229-17.8,30.985-15.163Z" transform="translate(-1970.895 37.106)" fill="#f14a44"/>
        <path id="Path_1319" data-name="Path 1319" d="M2786.736,864.857l-9.889,7.911-27.69-18.46,14.5-9.23Z" transform="translate(-2037.978 69.587)" fill="#f14a44"/>
        <path id="Path_1320" data-name="Path 1320" d="M2500.575,827.371v13.845h-17.142L2492,827.371Z" transform="translate(-2150.611 62.081)" fill="#f14a44"/>
        <path id="Path_1321" data-name="Path 1321" d="M2933.376,370.621l-27.03,17.8-9.23-17.8,30.986-15.163Z" transform="translate(-1975.262 -137.95)" fill="#fac34e"/>
        <path id="Path_1322" data-name="Path 1322" d="M2879.783,850.957l-21.756,15.823-5.933-31.645,13.845-2.637Z" transform="translate(-1994.346 64.254)" fill="#fac34e"/>
        <path id="Path_1323" data-name="Path 1323" d="M2424.762,698l-21.756,15.823-5.933-31.645,13.845-2.637Z" transform="translate(-2187.217 -0.582)" fill="#fac34e"/>
        <path id="Path_1324" data-name="Path 1324" d="M2653.873,264.962v13.845h-17.141l8.571-13.845Z" transform="translate(-2085.632 -176.309)" fill="#fac34e"/>
        <path id="Path_1325" data-name="Path 1325" d="M2462.017,442.005l-27.031,17.8-9.23-17.8,30.986-15.163Z" transform="translate(-2175.059 -107.692)" fill="#01abe9"/>
        <path id="Path_1326" data-name="Path 1326" d="M2527.692,335.351l-9.23-7.911-29.008,3.956,11.208,6.592Z" transform="translate(-2148.06 -149.827)" fill="#01abe9"/>
        <path id="Path_1327" data-name="Path 1327" d="M2343.546,412.435l-21.756,15.823-5.933-31.645,13.845-2.637Z" transform="translate(-2221.642 -121.624)" fill="#01abe9"/>
        <path id="Path_1329" data-name="Path 1329" d="M2868.312,423.913c.247-.232.467-.451.708-.682C2868.787,423.462,2868.55,423.688,2868.312,423.913Z" transform="translate(-1987.472 -109.223)" fill="none"/>
        <path id="Path_1330" data-name="Path 1330" d="M2868,424.144l-.01-.031c.149-.138.313-.263.458-.4C2868.292,423.858,2868.157,423.995,2868,424.144Z" transform="translate(-1987.609 -109.02)" fill="#f14a44"/>
      </g>
    </g>
  </g>
</svg>
