<svg id="Group_1045" data-name="Group 1045" xmlns="http://www.w3.org/2000/svg" width="116.361" height="153.259" viewBox="0 0 116.361 153.259">
  <path id="Path_1331" data-name="Path 1331" d="M663.038,622.683V688.3l-24.723-24.723L613.593,688.3V622.683Z" transform="translate(-580.135 -540.303)" fill="#502eff"/>
  <ellipse id="Ellipse_92" data-name="Ellipse 92" cx="44.257" cy="44.257" rx="44.257" ry="44.257" transform="matrix(0.397, -0.918, 0.918, 0.397, 0, 81.255)" fill="#ffd34d"/>
  <g id="Group_1044" data-name="Group 1044" transform="translate(20.429 20.429)">
    <path id="Path_1332" data-name="Path 1332" d="M634.235,616.832a37.752,37.752,0,1,1,37.751-37.751A37.795,37.795,0,0,1,634.235,616.832Zm0-72.577a34.825,34.825,0,1,0,34.825,34.826A34.865,34.865,0,0,0,634.235,544.255Z" transform="translate(-596.483 -541.329)" fill="#f2ba49"/>
  </g>
  <path id="Path_1333" data-name="Path 1333" d="M638.776,558.8l5.489,16.895h17.764l-14.372,10.442,5.49,16.895-14.371-10.442L624.4,603.027l5.489-16.895-14.371-10.442h17.764Z" transform="translate(-580.595 -525.066)" fill="#f2ba49"/>
  <path id="Path_1334" data-name="Path 1334" d="M595.881,642.565a3.97,3.97,0,1,1-3.97-3.97A3.97,3.97,0,0,1,595.881,642.565Z" transform="translate(-574.017 -544.098)" fill="#ffd34d"/>
  <path id="Path_1335" data-name="Path 1335" d="M582.214,616.128a2.734,2.734,0,1,1-2.735-2.734A2.735,2.735,0,0,1,582.214,616.128Z" transform="translate(-571.347 -538.088)" fill="#f2ba49"/>
  <path id="Path_1336" data-name="Path 1336" d="M637.637,706.057h-4.122v-4.122H631.23v4.122h-4.122v2.284h4.122v4.122h2.284v-4.122h4.122Z" transform="translate(-583.358 -559.205)" fill="#ffd34d"/>
  <path id="Path_1337" data-name="Path 1337" d="M646.584,697.276a2.4,2.4,0,1,1-2.4-2.4A2.4,2.4,0,0,1,646.584,697.276Z" transform="translate(-586.86 -557.522)" fill="#f2ba49"/>
  <ellipse id="Ellipse_93" data-name="Ellipse 93" cx="3.253" cy="3.253" rx="3.253" ry="3.253" transform="translate(12.808 19.254)" fill="#ffd34d"/>
  <ellipse id="Ellipse_94" data-name="Ellipse 94" cx="2.665" cy="2.665" rx="2.665" ry="2.665" transform="translate(91.75 13.923)" fill="#ffd34d"/>
  <path id="Path_1338" data-name="Path 1338" d="M704.637,549.622H701.9V546.88h-1.519v2.742h-2.742v1.519h2.742v2.742H701.9v-2.742h2.742Z" transform="translate(-600.179 -522.224)" fill="#f2ba49"/>
  <path id="Path_1339" data-name="Path 1339" d="M691.457,683.466a2.158,2.158,0,1,1-2.158-2.157A2.157,2.157,0,0,1,691.457,683.466Z" transform="translate(-597.677 -554.286)" fill="#f2ba49"/>
</svg>
