<svg id="Group" xmlns="http://www.w3.org/2000/svg" width="1006.314" height="464.943" viewBox="0 0 1006.314 464.943">
  <g id="Group_79" data-name="Group 79">
    <path id="Fill_1" data-name="Fill 1" d="M30.407,15.244A15.2,15.2,0,1,1,15.2,0a15.224,15.224,0,0,1,15.21,15.244" fill="#5e5ee6"/>
    <path id="Fill_3" data-name="Fill 3" d="M30.407,15.244A15.2,15.2,0,1,1,15.2,0,15.223,15.223,0,0,1,30.407,15.244" transform="translate(91.222)" fill="#5e5ee6"/>
    <path id="Fill_5" data-name="Fill 5" d="M30.407,15.244A15.2,15.2,0,1,1,15.2,0a15.224,15.224,0,0,1,15.2,15.244" transform="translate(174.841)" fill="#5e5ee6"/>
    <path id="Fill_7" data-name="Fill 7" d="M30.407,15.244A15.2,15.2,0,1,1,15.2,0a15.225,15.225,0,0,1,15.21,15.244" transform="translate(266.063)" fill="#5e5ee6"/>
    <path id="Fill_9" data-name="Fill 9" d="M30.407,15.244A15.2,15.2,0,1,1,15.2,0,15.221,15.221,0,0,1,30.407,15.244" transform="translate(349.683)" fill="#5e5ee6"/>
    <path id="Fill_14" data-name="Fill 14" d="M30.407,15.244A15.2,15.2,0,1,1,15.2,0a15.224,15.224,0,0,1,15.21,15.244" transform="translate(0 83.842)" fill="#5e5ee6"/>
    <path id="Fill_16" data-name="Fill 16" d="M30.407,15.244A15.2,15.2,0,1,1,15.2,0,15.223,15.223,0,0,1,30.407,15.244" transform="translate(91.222 83.842)" fill="#5e5ee6"/>
    <path id="Fill_18" data-name="Fill 18" d="M30.407,15.244A15.2,15.2,0,1,1,15.2,0a15.224,15.224,0,0,1,15.2,15.244" transform="translate(174.841 83.842)" fill="#5e5ee6"/>
    <path id="Fill_20" data-name="Fill 20" d="M30.407,15.244A15.2,15.2,0,1,1,15.2,0a15.225,15.225,0,0,1,15.21,15.244" transform="translate(266.063 83.842)" fill="#5e5ee6"/>
    <path id="Fill_22" data-name="Fill 22" d="M30.407,15.244A15.2,15.2,0,1,1,15.2,0,15.221,15.221,0,0,1,30.407,15.244" transform="translate(349.683 83.842)" fill="#5e5ee6"/>
    <path id="Fill_27" data-name="Fill 27" d="M30.407,19.057c0,10.52-6.806,19.053-15.21,19.053S0,29.577,0,19.057,6.806,0,15.2,0s15.21,8.533,15.21,19.057" transform="translate(0 175.306)" fill="#5e5ee6"/>
    <path id="Fill_29" data-name="Fill 29" d="M30.407,19.057c0,10.52-6.806,19.053-15.207,19.053S0,29.577,0,19.057,6.806,0,15.2,0,30.407,8.533,30.407,19.057" transform="translate(91.222 175.306)" fill="#5e5ee6"/>
    <path id="Fill_31" data-name="Fill 31" d="M30.407,19.057c0,10.52-6.807,19.053-15.2,19.053S0,29.577,0,19.057,6.8,0,15.2,0s15.2,8.533,15.2,19.057" transform="translate(174.841 175.306)" fill="#5e5ee6"/>
    <path id="Fill_33" data-name="Fill 33" d="M30.407,19.057c0,10.52-6.807,19.053-15.21,19.053S0,29.577,0,19.057,6.8,0,15.2,0s15.21,8.533,15.21,19.057" transform="translate(266.063 175.306)" fill="#5e5ee6"/>
    <path id="Fill_35" data-name="Fill 35" d="M30.407,19.057c0,10.52-6.8,19.053-15.207,19.053S0,29.577,0,19.057,6.806,0,15.2,0,30.407,8.533,30.407,19.057" transform="translate(349.683 175.306)" fill="#5e5ee6"/>
    <path id="Fill_40" data-name="Fill 40" d="M30.407,19.053c0,10.524-6.806,19.057-15.21,19.057S0,29.577,0,19.053,6.806,0,15.2,0s15.21,8.533,15.21,19.053" transform="translate(0 259.148)" fill="#5e5ee6"/>
    <path id="Fill_42" data-name="Fill 42" d="M30.407,19.053C30.407,29.577,23.6,38.11,15.2,38.11S0,29.577,0,19.053,6.806,0,15.2,0,30.407,8.533,30.407,19.053" transform="translate(91.222 259.148)" fill="#5e5ee6"/>
    <path id="Fill_44" data-name="Fill 44" d="M30.407,19.053c0,10.524-6.807,19.057-15.2,19.057S0,29.577,0,19.053,6.8,0,15.2,0s15.2,8.533,15.2,19.053" transform="translate(174.841 259.148)" fill="#5e5ee6"/>
    <path id="Fill_46" data-name="Fill 46" d="M30.407,19.053c0,10.524-6.807,19.057-15.21,19.057S0,29.577,0,19.053,6.8,0,15.2,0s15.21,8.533,15.21,19.053" transform="translate(266.063 259.148)" fill="#5e5ee6"/>
    <path id="Fill_48" data-name="Fill 48" d="M30.407,19.053c0,10.524-6.8,19.057-15.207,19.057S0,29.577,0,19.053,6.806,0,15.2,0,30.407,8.533,30.407,19.053" transform="translate(349.683 259.148)" fill="#5e5ee6"/>
    <path id="Fill_53" data-name="Fill 53" d="M30.407,15.244A15.2,15.2,0,1,1,15.2,0a15.226,15.226,0,0,1,15.21,15.244" transform="translate(0 350.612)" fill="#5e5ee6"/>
    <path id="Fill_55" data-name="Fill 55" d="M30.407,15.244A15.2,15.2,0,1,1,15.2,0,15.225,15.225,0,0,1,30.407,15.244" transform="translate(91.222 350.612)" fill="#5e5ee6"/>
    <path id="Fill_57" data-name="Fill 57" d="M30.407,15.244A15.2,15.2,0,1,1,15.2,0a15.226,15.226,0,0,1,15.2,15.244" transform="translate(174.841 350.612)" fill="#5e5ee6"/>
    <path id="Fill_59" data-name="Fill 59" d="M30.407,15.244A15.2,15.2,0,1,1,15.2,0a15.227,15.227,0,0,1,15.21,15.244" transform="translate(266.063 350.612)" fill="#5e5ee6"/>
    <path id="Fill_61" data-name="Fill 61" d="M30.407,15.244A15.2,15.2,0,1,1,15.2,0,15.223,15.223,0,0,1,30.407,15.244" transform="translate(349.683 350.612)" fill="#5e5ee6"/>
    <path id="Fill_66" data-name="Fill 66" d="M30.407,15.244A15.2,15.2,0,1,1,15.2,0a15.224,15.224,0,0,1,15.21,15.244" transform="translate(0 434.455)" fill="#5e5ee6"/>
    <path id="Fill_68" data-name="Fill 68" d="M30.407,15.244A15.2,15.2,0,1,1,15.2,0,15.223,15.223,0,0,1,30.407,15.244" transform="translate(91.222 434.455)" fill="#5e5ee6"/>
    <path id="Fill_70" data-name="Fill 70" d="M30.407,15.244A15.2,15.2,0,1,1,15.2,0a15.224,15.224,0,0,1,15.2,15.244" transform="translate(174.841 434.455)" fill="#5e5ee6"/>
    <path id="Fill_72" data-name="Fill 72" d="M30.407,15.244A15.2,15.2,0,1,1,15.2,0a15.225,15.225,0,0,1,15.21,15.244" transform="translate(266.063 434.455)" fill="#5e5ee6"/>
    <path id="Fill_74" data-name="Fill 74" d="M30.407,15.244A15.2,15.2,0,1,1,15.2,0,15.221,15.221,0,0,1,30.407,15.244" transform="translate(349.683 434.455)" fill="#5e5ee6"/>
    <path id="Fill_9_Copy" data-name="Fill 9 Copy" d="M30.407,15.244A15.2,15.2,0,1,1,15.2,0,15.221,15.221,0,0,1,30.407,15.244" transform="translate(440.905)" fill="#5e5ee6"/>
    <path id="Fill_22_Copy" data-name="Fill 22 Copy" d="M30.407,15.244A15.2,15.2,0,1,1,15.2,0,15.221,15.221,0,0,1,30.407,15.244" transform="translate(440.905 83.842)" fill="#5e5ee6"/>
    <path id="Fill_35_Copy" data-name="Fill 35 Copy" d="M30.407,19.057c0,10.52-6.8,19.053-15.207,19.053S0,29.577,0,19.057,6.806,0,15.2,0,30.407,8.533,30.407,19.057" transform="translate(440.905 175.306)" fill="#5e5ee6"/>
    <path id="Fill_48_Copy" data-name="Fill 48 Copy" d="M30.407,19.053c0,10.524-6.8,19.057-15.207,19.057S0,29.577,0,19.053,6.806,0,15.2,0,30.407,8.533,30.407,19.053" transform="translate(440.905 259.148)" fill="#5e5ee6"/>
    <path id="Fill_61_Copy" data-name="Fill 61 Copy" d="M30.407,15.244A15.2,15.2,0,1,1,15.2,0,15.223,15.223,0,0,1,30.407,15.244" transform="translate(440.905 350.612)" fill="#5e5ee6"/>
    <path id="Fill_74_Copy" data-name="Fill 74 Copy" d="M30.407,15.244A15.2,15.2,0,1,1,15.2,0,15.221,15.221,0,0,1,30.407,15.244" transform="translate(440.905 434.455)" fill="#5e5ee6"/>
  </g>
  <g id="Group_79_Copy_3" data-name="Group 79 Copy 3" transform="translate(535.003)">
    <path id="Fill_1-2" data-name="Fill 1" d="M30.407,15.244A15.2,15.2,0,1,1,15.2,0a15.224,15.224,0,0,1,15.21,15.244" fill="#5e5ee6"/>
    <path id="Fill_3-2" data-name="Fill 3" d="M30.407,15.244A15.2,15.2,0,1,1,15.2,0,15.223,15.223,0,0,1,30.407,15.244" transform="translate(91.222)" fill="#5e5ee6"/>
    <path id="Fill_5-2" data-name="Fill 5" d="M30.407,15.244A15.2,15.2,0,1,1,15.2,0a15.224,15.224,0,0,1,15.2,15.244" transform="translate(174.841)" fill="#5e5ee6"/>
    <path id="Fill_7-2" data-name="Fill 7" d="M30.407,15.244A15.2,15.2,0,1,1,15.2,0a15.225,15.225,0,0,1,15.21,15.244" transform="translate(266.063)" fill="#5e5ee6"/>
    <path id="Fill_9-2" data-name="Fill 9" d="M30.407,15.244A15.2,15.2,0,1,1,15.2,0,15.221,15.221,0,0,1,30.407,15.244" transform="translate(349.683)" fill="#5e5ee6"/>
    <path id="Fill_14-2" data-name="Fill 14" d="M30.407,15.244A15.2,15.2,0,1,1,15.2,0a15.224,15.224,0,0,1,15.21,15.244" transform="translate(0 83.842)" fill="#5e5ee6"/>
    <path id="Fill_16-2" data-name="Fill 16" d="M30.407,15.244A15.2,15.2,0,1,1,15.2,0,15.223,15.223,0,0,1,30.407,15.244" transform="translate(91.222 83.842)" fill="#5e5ee6"/>
    <path id="Fill_18-2" data-name="Fill 18" d="M30.407,15.244A15.2,15.2,0,1,1,15.2,0a15.224,15.224,0,0,1,15.2,15.244" transform="translate(174.841 83.842)" fill="#5e5ee6"/>
    <path id="Fill_20-2" data-name="Fill 20" d="M30.407,15.244A15.2,15.2,0,1,1,15.2,0a15.225,15.225,0,0,1,15.21,15.244" transform="translate(266.063 83.842)" fill="#5e5ee6"/>
    <path id="Fill_22-2" data-name="Fill 22" d="M30.407,15.244A15.2,15.2,0,1,1,15.2,0,15.221,15.221,0,0,1,30.407,15.244" transform="translate(349.683 83.842)" fill="#5e5ee6"/>
    <path id="Fill_27-2" data-name="Fill 27" d="M30.407,19.057c0,10.52-6.806,19.053-15.21,19.053S0,29.577,0,19.057,6.806,0,15.2,0s15.21,8.533,15.21,19.057" transform="translate(0 175.306)" fill="#5e5ee6"/>
    <path id="Fill_29-2" data-name="Fill 29" d="M30.407,19.057c0,10.52-6.806,19.053-15.207,19.053S0,29.577,0,19.057,6.806,0,15.2,0,30.407,8.533,30.407,19.057" transform="translate(91.222 175.306)" fill="#5e5ee6"/>
    <path id="Fill_31-2" data-name="Fill 31" d="M30.407,19.057c0,10.52-6.807,19.053-15.2,19.053S0,29.577,0,19.057,6.8,0,15.2,0s15.2,8.533,15.2,19.057" transform="translate(174.841 175.306)" fill="#5e5ee6"/>
    <path id="Fill_33-2" data-name="Fill 33" d="M30.407,19.057c0,10.52-6.807,19.053-15.21,19.053S0,29.577,0,19.057,6.8,0,15.2,0s15.21,8.533,15.21,19.057" transform="translate(266.063 175.306)" fill="#5e5ee6"/>
    <path id="Fill_35-2" data-name="Fill 35" d="M30.407,19.057c0,10.52-6.8,19.053-15.207,19.053S0,29.577,0,19.057,6.806,0,15.2,0,30.407,8.533,30.407,19.057" transform="translate(349.683 175.306)" fill="#5e5ee6"/>
    <path id="Fill_40-2" data-name="Fill 40" d="M30.407,19.053c0,10.524-6.806,19.057-15.21,19.057S0,29.577,0,19.053,6.806,0,15.2,0s15.21,8.533,15.21,19.053" transform="translate(0 259.148)" fill="#5e5ee6"/>
    <path id="Fill_42-2" data-name="Fill 42" d="M30.407,19.053C30.407,29.577,23.6,38.11,15.2,38.11S0,29.577,0,19.053,6.806,0,15.2,0,30.407,8.533,30.407,19.053" transform="translate(91.222 259.148)" fill="#5e5ee6"/>
    <path id="Fill_44-2" data-name="Fill 44" d="M30.407,19.053c0,10.524-6.807,19.057-15.2,19.057S0,29.577,0,19.053,6.8,0,15.2,0s15.2,8.533,15.2,19.053" transform="translate(174.841 259.148)" fill="#5e5ee6"/>
    <path id="Fill_46-2" data-name="Fill 46" d="M30.407,19.053c0,10.524-6.807,19.057-15.21,19.057S0,29.577,0,19.053,6.8,0,15.2,0s15.21,8.533,15.21,19.053" transform="translate(266.063 259.148)" fill="#5e5ee6"/>
    <path id="Fill_48-2" data-name="Fill 48" d="M30.407,19.053c0,10.524-6.8,19.057-15.207,19.057S0,29.577,0,19.053,6.806,0,15.2,0,30.407,8.533,30.407,19.053" transform="translate(349.683 259.148)" fill="#5e5ee6"/>
    <path id="Fill_53-2" data-name="Fill 53" d="M30.407,15.244A15.2,15.2,0,1,1,15.2,0a15.226,15.226,0,0,1,15.21,15.244" transform="translate(0 350.612)" fill="#5e5ee6"/>
    <path id="Fill_55-2" data-name="Fill 55" d="M30.407,15.244A15.2,15.2,0,1,1,15.2,0,15.225,15.225,0,0,1,30.407,15.244" transform="translate(91.222 350.612)" fill="#5e5ee6"/>
    <path id="Fill_57-2" data-name="Fill 57" d="M30.407,15.244A15.2,15.2,0,1,1,15.2,0a15.226,15.226,0,0,1,15.2,15.244" transform="translate(174.841 350.612)" fill="#5e5ee6"/>
    <path id="Fill_59-2" data-name="Fill 59" d="M30.407,15.244A15.2,15.2,0,1,1,15.2,0a15.227,15.227,0,0,1,15.21,15.244" transform="translate(266.063 350.612)" fill="#5e5ee6"/>
    <path id="Fill_61-2" data-name="Fill 61" d="M30.407,15.244A15.2,15.2,0,1,1,15.2,0,15.223,15.223,0,0,1,30.407,15.244" transform="translate(349.683 350.612)" fill="#5e5ee6"/>
    <path id="Fill_66-2" data-name="Fill 66" d="M30.407,15.244A15.2,15.2,0,1,1,15.2,0a15.224,15.224,0,0,1,15.21,15.244" transform="translate(0 434.455)" fill="#5e5ee6"/>
    <path id="Fill_68-2" data-name="Fill 68" d="M30.407,15.244A15.2,15.2,0,1,1,15.2,0,15.223,15.223,0,0,1,30.407,15.244" transform="translate(91.222 434.455)" fill="#5e5ee6"/>
    <path id="Fill_70-2" data-name="Fill 70" d="M30.407,15.244A15.2,15.2,0,1,1,15.2,0a15.224,15.224,0,0,1,15.2,15.244" transform="translate(174.841 434.455)" fill="#5e5ee6"/>
    <path id="Fill_72-2" data-name="Fill 72" d="M30.407,15.244A15.2,15.2,0,1,1,15.2,0a15.225,15.225,0,0,1,15.21,15.244" transform="translate(266.063 434.455)" fill="#5e5ee6"/>
    <path id="Fill_74-2" data-name="Fill 74" d="M30.407,15.244A15.2,15.2,0,1,1,15.2,0,15.221,15.221,0,0,1,30.407,15.244" transform="translate(349.683 434.455)" fill="#5e5ee6"/>
    <path id="Fill_9_Copy-2" data-name="Fill 9 Copy" d="M30.407,15.244A15.2,15.2,0,1,1,15.2,0,15.221,15.221,0,0,1,30.407,15.244" transform="translate(440.905)" fill="#5e5ee6"/>
    <path id="Fill_22_Copy-2" data-name="Fill 22 Copy" d="M30.407,15.244A15.2,15.2,0,1,1,15.2,0,15.221,15.221,0,0,1,30.407,15.244" transform="translate(440.905 83.842)" fill="#5e5ee6"/>
    <path id="Fill_35_Copy-2" data-name="Fill 35 Copy" d="M30.407,19.057c0,10.52-6.8,19.053-15.207,19.053S0,29.577,0,19.057,6.806,0,15.2,0,30.407,8.533,30.407,19.057" transform="translate(440.905 175.306)" fill="#5e5ee6"/>
    <path id="Fill_48_Copy-2" data-name="Fill 48 Copy" d="M30.407,19.053c0,10.524-6.8,19.057-15.207,19.057S0,29.577,0,19.053,6.806,0,15.2,0,30.407,8.533,30.407,19.053" transform="translate(440.905 259.148)" fill="#5e5ee6"/>
    <path id="Fill_61_Copy-2" data-name="Fill 61 Copy" d="M30.407,15.244A15.2,15.2,0,1,1,15.2,0,15.223,15.223,0,0,1,30.407,15.244" transform="translate(440.905 350.612)" fill="#5e5ee6"/>
    <path id="Fill_74_Copy-2" data-name="Fill 74 Copy" d="M30.407,15.244A15.2,15.2,0,1,1,15.2,0,15.221,15.221,0,0,1,30.407,15.244" transform="translate(440.905 434.455)" fill="#5e5ee6"/>
  </g>
</svg>
